<?xml version="1.0" standalone="no"?>
<!DOCTYPE svg PUBLIC "-//W3C//DTD SVG 20010904//EN"
 "http://www.w3.org/TR/2001/REC-SVG-20010904/DTD/svg10.dtd">
<svg version="1.0" xmlns="http://www.w3.org/2000/svg"
 width="1000.000000pt" height="1000.000000pt" viewBox="0 0 1000.000000 1000.000000"
 preserveAspectRatio="xMidYMid meet">
<metadata>
Created by potrace 1.11, written by Peter Selinger 2001-2013
</metadata>
<g transform="translate(0.000000,1000.000000) scale(0.100000,-0.100000)"
fill="#000000" stroke="none">
<path d="M4590 9989 c-942 -81 -1818 -411 -2565 -964 -378 -280 -770 -672
-1050 -1050 -558 -752 -884 -1626 -965 -2580 -13 -155 -13 -635 0 -790 81
-954 407 -1828 965 -2580 280 -378 672 -770 1050 -1050 752 -558 1626 -884
2580 -965 155 -13 635 -13 790 0 954 81 1828 407 2580 965 378 280 770 672
1050 1050 558 752 884 1626 965 2580 13 155 13 635 0 790 -81 954 -407 1828
-965 2580 -280 378 -672 770 -1050 1050 -752 558 -1626 884 -2580 965 -139 11
-666 11 -805 -1z m2094 -2271 c14 -20 16 -85 16 -506 l0 -483 -25 -24 -24 -25
-1132 0 c-1040 0 -1134 -1 -1151 -17 -17 -15 -18 -46 -18 -559 l0 -543 26 -20
c27 -21 30 -21 1033 -21 770 0 1010 -3 1019 -12 9 -9 12 -134 12 -499 l0 -488
-22 -15 c-20 -14 -134 -16 -1027 -16 -921 0 -1006 -1 -1023 -17 -17 -15 -18
-46 -18 -561 0 -494 2 -547 17 -564 15 -17 65 -18 1188 -18 1103 0 1174 -1
1193 -17 30 -26 42 -82 49 -218 21 -452 -230 -751 -687 -820 -79 -12 -326 -15
-1487 -15 -1252 0 -1393 2 -1407 16 -14 14 -16 239 -16 2327 1 1905 3 2325 14
2387 63 345 331 636 666 720 41 10 86 21 100 23 14 2 624 5 1357 6 l1332 1 15
-22z"/>
</g>
</svg>
